<svg width="226" height="226" viewBox="0 0 226 226" fill="none" xmlns="http://www.w3.org/2000/svg">
<g filter="url(#filter0_d_1_7)">
<path d="M113 9C168.237 9 213 53.7778 213 109C213 164.222 168.237 209 113 209" stroke="white" stroke-width="17" stroke-linecap="round" stroke-linejoin="round"/>
<path d="M83 204C71.1164 199.953 59.9532 194.107 50.2302 186.462M50.2302 31.5385C59.9532 24.0059 71.1164 18.0473 83 14M13 91.4612C15.1607 79.8813 19.6019 68.6386 25.9638 58.4078M13 126.539C15.1607 138.119 19.6019 149.361 25.9638 159.592" stroke="white" stroke-width="17" stroke-linecap="round" stroke-linejoin="round"/>
<path d="M73 154C93.7262 132.02 132.051 130.986 153 154M135.179 86.5C135.179 98.9264 125.215 109 112.925 109C100.634 109 90.6708 98.9264 90.6708 86.5C90.6708 74.0736 100.634 64 112.925 64C125.215 64 135.179 74.0736 135.179 86.5Z" stroke="white" stroke-width="17" stroke-linecap="round"/>
</g>
<defs>
<filter id="filter0_d_1_7" x="0.498474" y="0.5" width="225.002" height="225" filterUnits="userSpaceOnUse" color-interpolation-filters="sRGB">
<feFlood flood-opacity="0" result="BackgroundImageFix"/>
<feColorMatrix in="SourceAlpha" type="matrix" values="0 0 0 0 0 0 0 0 0 0 0 0 0 0 0 0 0 0 127 0" result="hardAlpha"/>
<feOffset dy="4"/>
<feGaussianBlur stdDeviation="2"/>
<feComposite in2="hardAlpha" operator="out"/>
<feColorMatrix type="matrix" values="0 0 0 0 0 0 0 0 0 0 0 0 0 0 0 0 0 0 0.25 0"/>
<feBlend mode="normal" in2="BackgroundImageFix" result="effect1_dropShadow_1_7"/>
<feBlend mode="normal" in="SourceGraphic" in2="effect1_dropShadow_1_7" result="shape"/>
</filter>
</defs>
</svg>
